<svg width="214" height="214" viewBox="0 0 214 214" fill="none" xmlns="http://www.w3.org/2000/svg">
<rect x="0.477295" y="0.535126" width="212.618" height="212.618" rx="106.309" fill="#F2FBF0"/>
<rect x="0.477295" y="0.535126" width="212.618" height="212.618" rx="106.309" fill="#F2FBF0"/>
<rect x="12.3997" y="12.4577" width="188.773" height="188.773" rx="94.3866" fill="#FF5F08" fill-opacity="0.3"/>
<rect x="26.3093" y="26.3673" width="160.954" height="160.954" rx="80.477" fill="#FF5F08"/>
<rect x="40.219" y="40.2769" width="133.135" height="133.135" rx="66.5674" fill="#FF5F08"/>
<g clip-path="url(#clip0_77_358)">
<path fill-rule="evenodd" clip-rule="evenodd" d="M106.86 78.2757C107.14 78.1157 107.457 78.0315 107.78 78.0315C108.102 78.0315 108.419 78.1157 108.7 78.2757L134.664 93.1126C134.948 93.2748 135.184 93.5091 135.348 93.7918C135.512 94.0745 135.599 94.3956 135.599 94.7225V97.3931C135.599 105.576 132.933 113.535 128.005 120.067C123.078 126.6 116.156 131.348 108.288 133.595C107.956 133.69 107.604 133.69 107.272 133.595C99.4042 131.347 92.483 126.598 87.5554 120.066C82.6277 113.534 79.9616 105.575 79.9604 97.3931V94.7225C79.9606 94.3956 80.0471 94.0745 80.2112 93.7918C80.3754 93.5091 80.6113 93.2748 80.8952 93.1126L106.86 78.2757ZM106.192 117.76L122.209 97.7343L119.315 95.4198L105.658 112.486L95.9843 104.426L93.6104 107.274L106.192 117.76Z" fill="#F9F9FE"/>
</g>
<defs>
<clipPath id="clip0_77_358">
<rect width="55.6384" height="55.6384" fill="white" transform="translate(79.9604 78.0315)"/>
</clipPath>
</defs>
</svg>
